<svg width="75" height="75" viewBox="0 0 75 75" fill="none" xmlns="http://www.w3.org/2000/svg">
<rect width="75" height="75" fill="url(#paint0_linear_2002_23)"/>
<rect x="5" y="5" width="65" height="65" rx="13" fill="white"/>
<mask id="mask0_2002_23" style="mask-type:alpha" maskUnits="userSpaceOnUse" x="6" y="23" width="63" height="49">
<ellipse cx="37.5" cy="47.5" rx="31.5" ry="24.5" fill="url(#paint1_radial_2002_23)"/>
</mask>
<g mask="url(#mask0_2002_23)">
<ellipse cx="37" cy="44" rx="28" ry="30" fill="url(#paint2_linear_2002_23)" fill-opacity="0.8"/>
</g>
<ellipse cx="37.05" cy="37.5" rx="28.25" ry="27.5" fill="url(#paint3_linear_2002_23)"/>
<path d="M61.5 22C61.5 22 52.018 22 38.7632 22C25.5083 22 13 22 13 22C16.5 14.5001 26.1316 7.99994 37.5 8C48.8684 8.00006 56.5 13.5 61.5 22Z" fill="#E03B2D"/>
<path d="M13.0573 22C13.0573 22 17.7741 29.9934 24.3678 41.1674C30.9615 52.3414 37.1838 62.8861 37.1838 62.8861C28.9835 63.7471 18.5941 58.9309 12.9389 49.3472C7.28366 39.7634 8.22405 30.5348 13.0573 22Z" fill="#2F9F49"/>
<path d="M37 62.9544C37 62.9544 41.795 54.9276 48.4978 43.7071C55.2006 32.4865 61.526 21.8979 61.526 21.8979C66.1947 28.707 66.9043 40.1939 61.1554 49.8175C55.4064 59.4411 46.8256 63.0809 37 62.9544Z" fill="#FBBD08"/>
<path d="M25 42.5L35.6757 22H13L25 42.5Z" fill="#E03B2D"/>
<path d="M49.5 42L26 44L37 63L49.5 42Z" fill="#2F9F49"/>
<path d="M37.5 22L50 41.5L61.5 22L37.5 22Z" fill="#FBBD08"/>
<circle cx="37" cy="36" r="14" fill="white"/>
<circle cx="37" cy="36" r="11" fill="#2A7DED"/>
<path d="M37 64.8L37.1299 65.025H36.8701L37 64.8Z" fill="white"/>
<defs>
<linearGradient id="paint0_linear_2002_23" x1="0" y1="0" x2="75" y2="75" gradientUnits="userSpaceOnUse">
<stop stop-color="#4C88C6"/>
<stop offset="1" stop-color="#D8B23E"/>
</linearGradient>
<radialGradient id="paint1_radial_2002_23" cx="0" cy="0" r="1" gradientUnits="userSpaceOnUse" gradientTransform="translate(37.5 47.5) rotate(90) scale(24.5 31.5)">
<stop offset="0.355"/>
<stop offset="0.87" stop-opacity="0"/>
</radialGradient>
<linearGradient id="paint2_linear_2002_23" x1="9" y1="43.4545" x2="65" y2="43.4545" gradientUnits="userSpaceOnUse">
<stop offset="0.5" stop-color="#258940"/>
<stop offset="0.5" stop-color="#D48E15"/>
</linearGradient>
<linearGradient id="paint3_linear_2002_23" x1="8.79999" y1="37" x2="65.3" y2="37" gradientUnits="userSpaceOnUse">
<stop offset="0.5" stop-color="#258940"/>
<stop offset="0.5" stop-color="#D48E15"/>
</linearGradient>
</defs>
</svg>
