<svg width="700" height="700" viewBox="0 0 700 700" fill="none" xmlns="http://www.w3.org/2000/svg">
<rect width="700" height="700" rx="5" fill="#BD4848"/>
<rect y="136" width="259" height="60" fill="black"/>
<rect x="553" y="136" width="147" height="60" fill="black"/>
<path d="M129 290H388V350H129V290Z" fill="black"/>
<rect x="350" y="414" width="350" height="60" fill="black"/>
<rect x="280" y="136" width="70" height="70" fill="#DEB1B1"/>
<rect x="421" y="290" width="70" height="70" fill="#DEB1B1"/>
<rect x="619" y="290" width="70" height="70" fill="#DEB1B1"/>
<rect x="462" y="136" width="70" height="70" fill="#DEB1B1"/>
<rect x="371" y="136" width="70" height="70" fill="black"/>
<rect x="165" y="609" width="70" height="70" fill="black"/>
<rect x="37" y="588" width="70" height="70" fill="black"/>
<rect x="165" y="474" width="70" height="70" fill="black"/>
<rect x="294" y="495" width="70" height="70" fill="black"/>
<rect x="294" y="630" width="70" height="70" fill="black"/>
<rect x="37" y="453" width="70" height="70" fill="black"/>
<rect x="525" y="291" width="68" height="68" stroke="white" stroke-width="2"/>
</svg>
