<svg width="200" height="200" viewBox="0 0 200 200" fill="none" xmlns="http://www.w3.org/2000/svg">
<rect width="200" height="200" fill="white"/>
<circle cx="100" cy="100" r="50" fill="black"/>
<rect x="128.22" y="45" width="38" height="17" transform="rotate(45.9556 128.22 45)" fill="black"/>
<path d="M104.882 63.7691C100.965 61.6837 96.5311 60.7272 92 60.9902C87.4689 61.2532 82.9912 62.7271 78.9918 65.2719C74.9923 67.8167 71.6037 71.3481 69.1476 75.531C66.6914 79.7139 65.2492 84.4095 64.9576 89.1724L71.4022 89.1067C71.6229 85.5003 72.715 81.9448 74.5748 78.7775C76.4346 75.6102 79.0004 72.9363 82.0288 71.0093C85.0572 69.0824 88.4477 67.9664 91.8786 67.7673C95.3095 67.5681 98.6671 68.2924 101.633 69.8714L104.882 63.7691Z" fill="white"/>
<path d="M153.307 33.154L157.246 44.1436L168.152 48.3071L157.163 52.2459L152.999 63.1524L149.06 52.1627L138.154 47.9992L149.144 44.0604L153.307 33.154Z" fill="black"/>
</svg>
