<svg width="200" height="200" viewBox="0 0 200 200" fill="none" xmlns="http://www.w3.org/2000/svg">
<rect width="200" height="200" fill="white"/>
<circle cx="102" cy="100" r="50" fill="#22223E"/>
<path d="M68.6777 132L79.2843 142.607L66.9099 154.981C63.981 157.91 59.2322 157.91 56.3033 154.981V154.981C53.3744 152.052 53.3744 147.303 56.3033 144.374L68.6777 132Z" fill="#22223E"/>
<path d="M122.588 143.884L133.195 133.277L145.569 145.652C148.498 148.581 148.498 153.329 145.569 156.258V156.258C142.64 159.187 137.891 159.187 134.962 156.258L122.588 143.884Z" fill="#22223E"/>
<path d="M93 103.282L104.59 93.7602L121.006 113.741C123.636 116.942 123.173 121.668 119.973 124.297V124.297C116.772 126.927 112.046 126.464 109.417 123.264L93 103.282Z" fill="white"/>
<path d="M108 103.36H93V77.5C93 73.3579 96.3579 70 100.5 70V70C104.642 70 108 73.3579 108 77.5V103.36Z" fill="white"/>
<path d="M75.8198 49.6066C73.0068 46.7936 69.1915 45.2132 65.2132 45.2132C61.235 45.2132 57.4196 46.7936 54.6066 49.6066C51.7936 52.4196 50.2132 56.235 50.2132 60.2132C50.2132 64.1914 51.7936 68.0068 54.6066 70.8198L65.2132 60.2132L75.8198 49.6066Z" fill="#22223E"/>
<path d="M150.82 70.8198C153.633 68.0068 155.213 64.1915 155.213 60.2132C155.213 56.235 153.633 52.4196 150.82 49.6066C148.007 46.7936 144.191 45.2132 140.213 45.2132C136.235 45.2132 132.42 46.7936 129.607 49.6066L140.213 60.2132L150.82 70.8198Z" fill="#22223E"/>
</svg>
