<svg width="24" height="24" viewBox="0 0 24 24" fill="none" xmlns="http://www.w3.org/2000/svg">
<rect width="24" height="24" fill="white"/>
<path d="M2.5 11.5V20.5C2.5 21.0523 2.94771 21.5 3.5 21.5H12.5C13.0523 21.5 13.5 21.0523 13.5 20.5V11.5C13.5 10.9477 13.0523 10.5 12.5 10.5H3.5C2.94772 10.5 2.5 10.9477 2.5 11.5Z" fill="white" stroke="black"/>
<path d="M7 16V7C7 6.44772 7.44771 6 8 6H17C17.5523 6 18 6.44771 18 7V16C18 16.5523 17.5523 17 17 17H8C7.44772 17 7 16.5523 7 16Z" fill="white" stroke="black"/>
<path d="M10.5 12.5V3.5C10.5 2.94772 10.9477 2.5 11.5 2.5H20.5C21.0523 2.5 21.5 2.94771 21.5 3.5V12.5C21.5 13.0523 21.0523 13.5 20.5 13.5H11.5C10.9477 13.5 10.5 13.0523 10.5 12.5Z" fill="white" stroke="black"/>
</svg>
